PathFileType	4	(X/Y/Z)	 s01c0301.trc
DataRate	CameraRate	NumFrames	NumMarkers	Units	OrigDataRate	OrigDataStartFrame	OrigNumFrames
200	200	5	48	mm	200	251	2000
Frame#	Time	racr			lacr			c7			jug			rlel			rdr			llel			ldr			s2			lic			ric			lasi			rasi			rpsi			lpsi			rgt			lgt			rth1			rth2			rth3			rth4			rlfc			rsh1			rsh2			rsh3			rsh4			rlmal			rmmal			rcal			rtoe			rmt5			lth1			lth2			lth4			lth3			llfc			lsh1			lsh2			lsh3			lsh4			llmal			lmmal			lcal			ltoe			lmt5			SBIKE			LBIKE			RBIKE			
		X1	Y1	Z1	X2	Y2	Z2	X3	Y3	Z3	X4	Y4	Z4	X5	Y5	Z5	X6	Y6	Z6	X7	Y7	Z7	X8	Y8	Z8	X9	Y9	Z9	X10	Y10	Z10	X11	Y11	Z11	X12	Y12	Z12	X13	Y13	Z13	X14	Y14	Z14	X15	Y15	Z15	X16	Y16	Z16	X17	Y17	Z17	X18	Y18	Z18	X19	Y19	Z19	X20	Y20	Z20	X21	Y21	Z21	X22	Y22	Z22	X23	Y23	Z23	X24	Y24	Z24	X25	Y25	Z25	X26	Y26	Z26	X27	Y27	Z27	X28	Y28	Z28	X29	Y29	Z29	X30	Y30	Z30	X31	Y31	Z31	X32	Y32	Z32	X33	Y33	Z33	X34	Y34	Z34	X35	Y35	Z35	X36	Y36	Z36	X37	Y37	Z37	X38	Y38	Z38	X39	Y39	Z39	X40	Y40	Z40	X41	Y41	Z41	X42	Y42	Z42	X43	Y43	Z43	X44	Y44	Z44	X45	Y45	Z45	X46	Y46	Z46	X47	Y47	Z47	X48	Y48	Z48	
251	1.2550	518.837584	1345.694891	-103.967620	503.999181	1354.397830	-401.596514	440.132316	1416.085519	-245.226752	469.919334	1253.676266	-254.618083	569.944256	1068.923985	-3.373791	721.156269	856.035200	-60.824867	563.365085	1087.215353	-519.278312	720.759373	888.000459	-462.174608	-82.492836	1186.889191	-222.569296	94.138720	1193.306218	-394.719703	88.793204	1162.592464	-77.822729	89.970053	1137.123880	-375.740412	103.205844	1113.579456	-100.205526	-43.651710	1215.885528	-169.293895	-51.830588	1231.485527	-273.315115	18.138325	1047.769321	-48.509854	30.552189	1087.156124	-432.964193	106.140818	941.682343	-39.512777	163.534304	882.576625	-48.737738	220.618724	814.182778	-65.015462	203.550606	918.895718	-61.276659	257.961034	712.641715	-95.393272	182.886084	621.422769	-62.225986	138.758432	549.109498	-66.578275	84.397633	479.089306	-78.255084	175.771317	526.519620	-108.718001	3.235867	376.324847	-98.368588	49.852187	377.823131	-177.596485	-46.843067	362.063780	-157.926264	195.400303	237.282082	-132.184666	85.553386	252.746902	-70.437952	123.400978	998.835432	-427.504128	207.672428	972.258085	-420.173145	224.729983	1023.510171	-410.086223	284.656200	938.825040	-401.274278	375.610561	864.809147	-373.450346	329.272856	764.962242	-413.434603	310.302662	679.904015	-412.294615	289.292051	596.898992	-405.484568	362.570687	669.524132	-381.900906	254.843177	474.412887	-400.820426	280.980989	481.711136	-313.180221	205.370942	428.748329	-362.442657	482.716656	442.646943	-371.334255	380.954156	409.480818	-438.332716	-222.904744	893.047904	-248.985653	-12.170819	84.595259	-453.704877	-20.327390	80.737877	-53.707146	
252	1.2600	519.896788	1345.487696	-104.352280	504.615993	1353.225051	-400.844886	441.356314	1416.320397	-245.446921	470.034896	1253.501517	-254.475789	570.299323	1068.778851	-3.546763	721.211553	855.714217	-60.878720	559.604574	1084.742421	-520.437211	719.911305	887.956819	-461.914558	-82.178566	1188.378706	-222.190883	94.641101	1193.894256	-394.138581	88.906757	1164.095007	-77.443913	91.016388	1138.143326	-375.349697	103.165446	1114.775797	-99.624813	-43.584937	1217.416214	-168.721830	-51.440007	1232.949221	-273.035098	18.329221	1049.312488	-47.957215	31.000949	1088.561167	-432.490051	106.495225	943.661852	-39.167972	163.842835	884.458502	-48.325224	220.854819	815.931494	-64.503987	203.805220	920.708120	-61.260199	257.973489	714.141263	-94.757503	182.951016	622.777864	-61.689436	138.884125	550.531516	-66.035425	84.573048	480.357342	-77.803067	175.927560	527.992859	-108.156246	3.259442	377.725958	-98.171169	49.966179	379.139468	-177.301068	-46.726696	363.578448	-157.748290	195.022041	237.695201	-132.280925	85.318463	253.568835	-70.401336	123.429097	999.863837	-427.003953	207.569469	972.965050	-419.426054	224.699139	1024.035130	-409.234695	284.297189	938.862960	-400.621029	374.994496	864.155931	-372.560933	329.020460	764.205491	-412.825599	310.282507	679.026414	-411.823210	289.443278	596.041621	-405.260757	362.512212	668.757726	-381.331486	255.186744	473.609377	-400.863917	281.291653	480.747772	-313.233164	205.759512	427.935679	-362.557125	483.140087	441.726190	-371.402159	381.431447	408.501557	-438.443684	-222.908496	893.062187	-249.072679	-12.189542	84.571165	-453.716076	-20.336271	80.757013	-53.714605	
253	1.2650	520.988215	1345.269729	-104.653385	505.246681	1352.043482	-400.247802	442.663916	1416.496739	-245.525453	470.273198	1253.348605	-254.241977	570.717197	1068.457609	-3.571020	720.983566	854.955902	-61.370460	555.451451	1082.371600	-521.871647	719.048468	888.084648	-462.023041	-81.764944	1189.831961	-221.969101	95.448487	1194.587546	-393.573399	89.081134	1165.337546	-76.945236	91.880220	1139.555302	-375.069386	103.167590	1115.939826	-99.163353	-43.336791	1218.874544	-168.297817	-50.910627	1234.422651	-272.757961	18.486875	1050.777157	-47.463033	31.695503	1089.859436	-432.042687	106.868496	945.469179	-38.761430	164.213534	886.235690	-47.908879	221.213832	817.645231	-63.886157	204.109710	922.398561	-61.251360	257.994778	715.580177	-94.041658	182.996718	624.072763	-61.057760	138.910306	551.790781	-65.505003	84.608119	481.784987	-77.345616	176.047887	529.395518	-107.645073	3.153902	379.059454	-97.972744	49.912441	380.447598	-176.956407	-46.778425	365.008575	-157.563755	194.597448	238.335136	-132.380508	85.008130	254.465195	-70.387527	123.477770	1000.868902	-426.574379	207.498987	973.452995	-418.813772	224.896031	1024.446901	-408.570883	283.961143	938.871833	-399.859885	374.408647	863.510147	-371.805117	328.863192	763.339268	-412.393842	310.340550	678.351813	-411.583924	289.671853	595.138762	-405.164215	362.502833	668.007421	-380.971189	255.608259	472.724152	-401.089027	281.643275	479.715615	-313.378758	206.281744	426.957131	-362.809007	483.811789	440.705163	-371.459498	381.995272	407.477713	-438.510717	-222.887111	893.062066	-249.143798	-12.207976	84.566970	-453.745522	-20.329625	80.755745	-53.728808	
254	1.2700	522.052542	1344.977913	-104.837148	505.895642	1350.876063	-399.772693	443.931699	1416.627575	-245.514167	470.565292	1253.229410	-253.901920	570.938378	1068.097298	-3.572349	720.898045	854.600711	-61.528678	550.606093	1080.002618	-523.542339	718.201846	888.264756	-462.158278	-81.326615	1191.226045	-221.825298	96.350649	1195.237151	-392.932216	89.425159	1166.557621	-76.403182	92.745034	1140.925346	-374.786646	103.201414	1116.930533	-98.726924	-42.965729	1220.250087	-167.993046	-50.347056	1235.845702	-272.597439	18.650273	1052.202335	-47.061155	32.523225	1091.243132	-431.639588	107.453545	947.357492	-37.957318	164.660437	887.996924	-47.460048	221.629062	819.324323	-63.301814	204.414146	924.110650	-61.181313	258.035993	716.993006	-93.320027	183.105589	625.409427	-60.347974	138.950353	553.129586	-64.947306	84.530444	483.034634	-77.000842	176.062900	530.604487	-107.105286	2.846938	380.469513	-97.812941	49.817448	381.697501	-176.600852	-46.975656	366.358652	-157.375260	194.218069	239.036687	-132.442461	84.655487	255.339390	-70.374695	123.708292	1001.788562	-426.223665	207.564765	973.842917	-418.267666	225.280298	1024.639713	-407.825279	283.685965	938.735207	-399.244847	373.926105	862.785705	-371.111184	328.718483	762.597794	-412.090297	310.452422	677.388380	-411.362034	289.967494	594.279618	-405.159062	362.547983	667.293061	-380.731338	256.046029	471.691538	-401.286948	282.034565	478.682488	-313.605223	206.826625	426.065628	-363.183077	484.427177	439.449451	-371.515186	382.638503	406.471020	-438.676707	-222.839693	893.076350	-249.257911	-12.213477	84.545740	-453.760950	-20.341579	80.753889	-53.738237	
255	1.2750	523.159051	1344.680461	-104.856215	506.415215	1349.951150	-399.447654	445.204683	1416.724139	-245.380868	471.056348	1253.072887	-253.410478	571.131411	1067.635393	-3.478791	720.801046	854.240022	-61.747291	544.713277	1077.355089	-525.142471	717.504806	888.616093	-462.389728	-80.723296	1192.617421	-221.715020	97.570373	1196.116485	-392.237274	89.759661	1167.469540	-76.000622	93.611851	1142.254651	-374.502228	103.416529	1117.948187	-98.291135	-42.529901	1221.563109	-167.699870	-49.610078	1237.229657	-272.506692	18.849479	1053.574564	-46.683636	33.544020	1092.543133	-431.277801	107.960679	948.963861	-37.569357	165.128942	889.638061	-47.079237	222.132478	821.029239	-62.585402	204.846436	925.805933	-61.070935	258.080192	718.232823	-92.520273	183.142689	626.537645	-59.709267	138.838005	554.378041	-64.417195	84.362711	484.546167	-76.532569	175.972876	531.907193	-106.458781	2.571026	381.783967	-97.620276	49.417433	383.179727	-176.188296	-47.165420	367.716284	-157.135419	193.798873	239.848050	-132.499192	84.216196	256.308663	-70.337414	124.130227	1002.655726	-425.905625	207.761486	974.109682	-417.822129	225.751910	1024.753686	-407.273237	283.593499	938.448519	-398.673154	373.508199	862.036536	-370.575834	328.687637	761.720527	-411.801053	310.648609	676.598537	-411.272480	290.395780	593.348674	-405.182594	362.705064	666.477481	-380.540490	256.711604	470.785571	-401.641961	282.558238	477.704593	-313.792149	207.390112	425.180483	-363.528319	485.036864	438.281228	-371.551074	383.284401	405.276988	-438.821963	-222.784593	893.080719	-249.363964	-12.225696	84.511598	-453.776252	-20.330064	80.751725	-53.741654	
